# xmcd
#
# Track frame offsets:
#	150
#	13692
#	26905
#	40827
#	54230
#	72172
#	86430
#	98917
#	113730
#	126267
#	141417
#	153812
#	169435
#	185630
#	200280
#	212647
#
# Disc length: 3056 seconds
#
# Revision: 0
# Processed by: cddbd v1.5.1PL0 Copyright (c) Steve Scherf et al.
# Submitted via: dBpowerAMP V4.0
#
DISCID=de0bee10
DTITLE=Wenche - I'm A Country Girl
DYEAR=1900
DGENRE=Country
TTITLE0=Games people play
TTITLE1=9 to 5
TTITLE2=Crazy
TTITLE3=Thank god I'm a country girl
TTITLE4=Always on my mind
TTITLE5=Queen of the house
TTITLE6=Hey good lookin'
TTITLE7=Gentle on my mind
TTITLE8=Jolene
TTITLE9=You never can tell
TTITLE10=The end of the world
TTITLE11=Faded love
TTITLE12=Sweet dreams
TTITLE13=This old house
TTITLE14=Help me make it through the night
TTITLE15=Something to talk about
EXTD=Uffe Hassing Jacobsen
EXTT0=
EXTT1=
EXTT2=
EXTT3=
EXTT4=
EXTT5=
EXTT6=
EXTT7=
EXTT8=
EXTT9=
EXTT10=
EXTT11=
EXTT12=
EXTT13=
EXTT14=
EXTT15=
PLAYORDER=
